<svg id="White_logo_-_With_Blue_Bckground" data-name="White logo - With Blue Bckground" xmlns="http://www.w3.org/2000/svg" viewBox="0 0 400 400"><defs><style>.cls-1{fill:#fff;}</style></defs><g id="MC"><path class="cls-1" d="M376.42,75V252.5a5.67,5.67,0,0,1-5.68,5.67H227.32a5.67,5.67,0,0,1-5.67-5.67v-3.72a5.68,5.68,0,0,1,5.65-5.68c8.11,0,16.12.61,24.11.61,9.82,0,20.24-.61,30.25.51,5.35.59,10.59,3,16.39,4a141.67,141.67,0,0,0,50.08-.65,5.67,5.67,0,0,0,4.56-4.73c1.77-12.2,2.8-25.14,4.29-37.63a5.67,5.67,0,0,0-7.12-6.15c-11.43,3.13-22.64,6.27-33.95,3.83-20.06-4.32-40.07-30.33-28.28-56.28a44.18,44.18,0,0,1,9.42-12.46,45.72,45.72,0,0,1,12.9-8c12.24-4.64,26.71-2.65,38,1.63a5.66,5.66,0,0,0,7.62-6.11q-2.73-18.92-5.37-37.93A5.72,5.72,0,0,0,345.67,79C331.56,76,317.2,75.4,303,78.34c-4.63,1-8.89,3-13.38,3.48-5.68.59-11.76.26-17.38.51-14.32.63-29.15,1.48-44.79,1.87a5.66,5.66,0,0,1-5.79-5.67V70.87c-.05-.72-.08-1.41.49-1.5h148.6A5.67,5.67,0,0,1,376.42,75Z"/><path class="cls-1" d="M250.92,224.29a52.57,52.57,0,0,0,4.82,4.79,1.89,1.89,0,0,1-1.24,3.28c-10.43.29-20.62.82-30.87,1.31a1.89,1.89,0,0,1-2-1.89V216.53a1.88,1.88,0,0,1,2.1-1.87c7.2.83,13.93-1.4,19.23.67,3.43,1.33,5.65,6.28,7.94,9"/><path class="cls-1" d="M258.34,96.27c-2.12,4.9-7,7.07-10.14,10.94a3.14,3.14,0,0,1-2.23,1.12c-6.78.39-13.9.45-21.13.41a3.21,3.21,0,0,1-3.19-3.21v-7.8a3.22,3.22,0,0,1,3.36-3.2c11.77.43,25.6-3.25,33.33,1.74"/><path class="cls-1" d="M236,204.86h-12.5a1.89,1.89,0,0,1-1.89-1.89V181.86a1.9,1.9,0,0,1,1.89-1.9h4.09a1.89,1.89,0,0,1,1.84,1.42c2,8,3.23,16.79,6.57,23.48"/><path class="cls-1" d="M237,123.17c-.19,4.64-2.54,7.12-4,10.52a2.76,2.76,0,0,1-2.25,1.69c-2,.19-4.19.14-6.22.28a2.77,2.77,0,0,1-3-2.76V122.38a2.76,2.76,0,0,1,2.71-2.77c5.5-.1,10.5.32,12.68,3.56"/><path class="cls-1" d="M223.8,149.08h2.56a2.16,2.16,0,0,1,2.15,2.28c-.27,4.57-.92,8.74-.93,13.57a2.13,2.13,0,0,1-1.83,2.08c-.51.08-1,.21-1.45.32a2.15,2.15,0,0,1-2.65-2.09v-14A2.15,2.15,0,0,1,223.8,149.08Z"/><path class="cls-1" d="M204.29,147.09a200.77,200.77,0,0,1,2.41,20.71,1.16,1.16,0,0,1-1.12,1.23c-16.19.42-45.25,1.76-51.25,2a1.16,1.16,0,0,1-1.2-1l-.3-3.13-1.33,3.4a1.14,1.14,0,0,1-1,.73c-5.61.23-41.44,1.71-60.9,2.43a2.58,2.58,0,0,1-2.43-1.39l0-.05a1.15,1.15,0,0,0-2.16.42c-.2,2,0,4.13-.21,6-2.42,21.94-5.45,47.36-7.83,70.21a1.16,1.16,0,0,1-1.15,1H20.15A1.15,1.15,0,0,1,19,248.34c9.79-55,18.66-111,28.5-165.91a1.5,1.5,0,0,0,0-.2v-1.4H97.17a1.18,1.18,0,0,1,1.15.87c.52,2,1.53,3.59,2,5.63a1.15,1.15,0,0,1-1.15,1.4c-3.92-.06-6.85.85-11,.57,3.11,1.09,8.13.27,12.15.45l1,.76c2.71,7.13,5.47,14.2,7.73,21.77l-1.06,1.5c-6.87.37-13.62.87-20.83.92a184,184,0,0,0,22.5,1,1.17,1.17,0,0,1,1.1.76c2.67,7.09,5,14.47,7.83,21.45a2.71,2.71,0,0,1-2.2,3.67c-1.29.16-2.61.29-3.94.4a1.16,1.16,0,0,0,.08,2.31c2.33.06,4.62.15,6.86.3,1-.24,1.44,0,1.71.48a1.14,1.14,0,0,0,2,0,1.15,1.15,0,0,1,1.28-.49c26.39,1.06,53.44,1.47,79.87,2.5"/><path class="cls-1" d="M201.31,118.69c.33,6.65,1.48,12.45,2,18.93h0c-26.19,1.09-52.34,2.22-77.88,4h0c-1.42-1.4.37-3.75,1-5.48,1.92-5.29,4.54-12.54,7-17.93h0c0-.71-.09-1.42.51-1.5,22.77.37,45.33,1,67.44,2"/><path class="cls-1" d="M197.85,92.28c.79,4.77,1.45,9.67,1.82,14.86l-2.43,2.65c-19.71.59-39,1.58-58.16,2.7a2.5,2.5,0,0,1-2.51-3.3,161.84,161.84,0,0,1,6.48-16.93l2.36-1.4c17.17.8,35.14.76,52.44,1.42"/><path class="cls-1" d="M196.87,80.83v3c-1.22,1.9-3.92,1.37-6,1.49-14.62.8-30.87,1-46.12,1.5,1.2-2,1.24-5.06,3-6.48,16.2.33,33.73-.67,49.13.5"/><path class="cls-1" d="M149.23,176c-3.67,10.18-7.77,20-11.89,29.68L135.55,207c-10.64.87-22.52.5-33.29,1.25l-2.16-1.45c-3.39-10.22-7.53-19.69-10.94-29.9a2.15,2.15,0,0,1,2.1-2.81c19.41.54,38.88,1.06,58,1.92"/><path class="cls-1" d="M135.35,210.85c-3,7.9-6.12,15.64-9.29,23.36l-2.32,1.55H112.8l-2.35-1.68c-2.54-7.15-5.54-13.84-7.84-21.24a2.51,2.51,0,0,1,2.52-3.26c9.94.57,20.53.45,30.22,1.27"/><path class="cls-1" d="M124.42,238.24c-.75,2.7-2.35,5.19-3.47,8-.74,1.87-1,4.24-2,6l-1.93-.25c-1.33-4.48-3.33-8.29-4.62-12.8l1.09-1.35c3.67.13,6.84.78,10.94.47"/><path class="cls-1" d="M214.56,253.79,164,255.09a2.62,2.62,0,0,1-2.66-2.3l-.77-10.4a2.63,2.63,0,0,1,2.67-2.95l50.76,1.3a2.62,2.62,0,0,1,2.51,2.19l.59,7.81A2.62,2.62,0,0,1,214.56,253.79Z"/><path class="cls-1" d="M210.94,233.72,163.24,235a3.35,3.35,0,0,1-3.42-3l-2-17.41a3.36,3.36,0,0,1,3.51-3.74l47.8,2.52a3.34,3.34,0,0,1,3.14,2.87l1.95,13.64A3.35,3.35,0,0,1,210.94,233.72Z"/><path class="cls-1" d="M208,180.62l3.19,20.25a3.6,3.6,0,0,1-3.46,4.16l-47.22,1.25a3.62,3.62,0,0,1-3.66-3.1l-3.25-22.73a3.61,3.61,0,0,1,3.67-4.11l47.26,1.24A3.62,3.62,0,0,1,208,180.62Z"/></g><path class="cls-1" d="M46.8,321.08V301.63l-7.64,14.48H36l-7.6-14.48v19.45H22.6V291.46h6.21l8.72,16.81,8.81-16.81h6.17v29.62Z"/><path class="cls-1" d="M69.12,321.08V291.46h5.75v29.62Z"/><path class="cls-1" d="M89.68,306a15.22,15.22,0,0,1,3.86-10.1,14,14,0,0,1,10.75-4.67,13.44,13.44,0,0,1,7.07,1.79,11.2,11.2,0,0,1,4.4,4.67l-4.38,3.05a6.86,6.86,0,0,0-2-2.63,7.83,7.83,0,0,0-2.61-1.38,9.67,9.67,0,0,0-2.69-.41,7.82,7.82,0,0,0-3.78.87,8.25,8.25,0,0,0-2.67,2.3,10.18,10.18,0,0,0-1.6,3.17,12,12,0,0,0-.54,3.54,11.33,11.33,0,0,0,.62,3.74,10.42,10.42,0,0,0,1.77,3.21,8.56,8.56,0,0,0,2.76,2.21,7.7,7.7,0,0,0,3.52.82,9.17,9.17,0,0,0,2.76-.46,8.24,8.24,0,0,0,2.63-1.46,7.47,7.47,0,0,0,2-2.63l4.67,2.75a9.13,9.13,0,0,1-2.9,3.76,14.4,14.4,0,0,1-4.42,2.33,15.65,15.65,0,0,1-4.86.8A12.6,12.6,0,0,1,98.26,320a14.74,14.74,0,0,1-4.53-3.5,16.41,16.41,0,0,1-3-4.93A15.09,15.09,0,0,1,89.68,306Z"/><path class="cls-1" d="M130.53,321.08V291.46h13.14a8.39,8.39,0,0,1,3.73.83,9.7,9.7,0,0,1,3,2.25,10.43,10.43,0,0,1,2,3.17,9.75,9.75,0,0,1,.69,3.59,10.1,10.1,0,0,1-.65,3.59,9.1,9.1,0,0,1-1.86,3,8.37,8.37,0,0,1-2.83,2l6.76,11.14h-6.34l-6.1-9.93h-5.75v9.93Zm5.76-15h7.21a3,3,0,0,0,1.92-.65,4.6,4.6,0,0,0,1.34-1.73,5.75,5.75,0,0,0,.5-2.42,5.08,5.08,0,0,0-.59-2.46,4.82,4.82,0,0,0-1.46-1.71,3.19,3.19,0,0,0-1.91-.63h-7Z"/><path class="cls-1" d="M181.18,321.29A13.41,13.41,0,0,1,175.3,320a14,14,0,0,1-4.55-3.4,15.54,15.54,0,0,1-3-4.84,15,15,0,0,1-1-5.52,14.72,14.72,0,0,1,1.11-5.66,15.86,15.86,0,0,1,3-4.79,14.37,14.37,0,0,1,4.61-3.34,13.71,13.71,0,0,1,5.8-1.23,13.26,13.26,0,0,1,5.87,1.29,14.16,14.16,0,0,1,4.52,3.46,16.24,16.24,0,0,1,2.9,4.84,15.33,15.33,0,0,1,1,5.51,15.07,15.07,0,0,1-1.06,5.61,15.54,15.54,0,0,1-3,4.8,14.45,14.45,0,0,1-4.59,3.32A13.89,13.89,0,0,1,181.18,321.29Zm-8.6-15a11.9,11.9,0,0,0,.59,3.71,10.05,10.05,0,0,0,1.69,3.19,7.88,7.88,0,0,0,6.36,3,7.67,7.67,0,0,0,3.71-.86,8.43,8.43,0,0,0,2.69-2.27,9.73,9.73,0,0,0,1.65-3.22,12.34,12.34,0,0,0,.54-3.58,11.79,11.79,0,0,0-.58-3.7,10,10,0,0,0-1.71-3.17,8.38,8.38,0,0,0-2.71-2.21,7.89,7.89,0,0,0-3.63-.81,7.62,7.62,0,0,0-3.65.85,8.36,8.36,0,0,0-2.71,2.26,9.72,9.72,0,0,0-1.67,3.17A11.69,11.69,0,0,0,172.58,306.27Z"/><path class="cls-1" d="M229.16,306a15.09,15.09,0,0,1,3.86-10.1,14,14,0,0,1,10.74-4.67,13.44,13.44,0,0,1,7.07,1.79,11.14,11.14,0,0,1,4.4,4.67l-4.38,3.05a6.86,6.86,0,0,0-2-2.63,7.83,7.83,0,0,0-2.61-1.38,9.67,9.67,0,0,0-2.69-.41,7.8,7.8,0,0,0-3.77.87,8.25,8.25,0,0,0-2.67,2.3,10.2,10.2,0,0,0-1.61,3.17,12,12,0,0,0-.54,3.54,11.6,11.6,0,0,0,.62,3.74,10.24,10.24,0,0,0,1.78,3.21,8.42,8.42,0,0,0,2.75,2.21,7.74,7.74,0,0,0,3.53.82,9.11,9.11,0,0,0,2.75-.46,8.24,8.24,0,0,0,2.63-1.46,7.47,7.47,0,0,0,2-2.63l4.67,2.75a9.13,9.13,0,0,1-2.9,3.76,14.29,14.29,0,0,1-4.42,2.33,15.65,15.65,0,0,1-4.86.8,12.6,12.6,0,0,1-5.78-1.32,14.74,14.74,0,0,1-4.53-3.5,16.41,16.41,0,0,1-3-4.93A15.07,15.07,0,0,1,229.16,306Z"/><path class="cls-1" d="M270,321.08V291.46h5.76V316h15.1v5.05Z"/><path class="cls-1" d="M316.52,321.29a13.82,13.82,0,0,1-6-1.19,10.51,10.51,0,0,1-4-3.28,14,14,0,0,1-2.23-4.73,21,21,0,0,1-.71-5.53v-15.1h5.71v15.1a15.54,15.54,0,0,0,.4,3.56,10.61,10.61,0,0,0,1.21,3.11,5.85,5.85,0,0,0,2.19,2.17,6.76,6.76,0,0,0,3.42.8,6.69,6.69,0,0,0,3.48-.82,6.21,6.21,0,0,0,2.19-2.19,9.94,9.94,0,0,0,1.21-3.11,16,16,0,0,0,.38-3.52v-15.1h5.72v15.1a21.08,21.08,0,0,1-.75,5.69,13.94,13.94,0,0,1-2.3,4.72,10.57,10.57,0,0,1-4,3.17A14.06,14.06,0,0,1,316.52,321.29Z"/><path class="cls-1" d="M369.59,313.48a6.63,6.63,0,0,1-1.29,4.15,8,8,0,0,1-3.49,2.57,12.61,12.61,0,0,1-4.77.88H345.72V291.46h15.86a6,6,0,0,1,3.61,1.1,7.26,7.26,0,0,1,2.33,2.84,8.25,8.25,0,0,1,.82,3.61,7.91,7.91,0,0,1-1.09,4,6.8,6.8,0,0,1-3.17,2.86,7.61,7.61,0,0,1,4,2.71A7.87,7.87,0,0,1,369.59,313.48Zm-18.11-17.1v7.47h7.68a3.49,3.49,0,0,0,1.75-.46,3.45,3.45,0,0,0,1.27-1.3,3.85,3.85,0,0,0,.48-2,4.14,4.14,0,0,0-.43-2,3.65,3.65,0,0,0-1.17-1.29,3,3,0,0,0-1.65-.48Zm12.31,16a4.36,4.36,0,0,0-.46-2,3.91,3.91,0,0,0-1.23-1.44,3,3,0,0,0-1.77-.54h-8.85v7.85H360a3.55,3.55,0,0,0,1.89-.53,3.78,3.78,0,0,0,1.36-1.39A3.87,3.87,0,0,0,363.79,312.36Z"/></svg>