<svg xmlns="http://www.w3.org/2000/svg" version="1.1" xmlns:xlink="http://www.w3.org/1999/xlink" xmlns:svgjs="http://svgjs.com/svgjs" width="1440" height="560" preserveAspectRatio="none" viewBox="0 0 1440 560"><g mask="url(&quot;#SvgjsMask1000&quot;)" fill="none"><rect width="1440" height="560" x="0" y="0" fill="#0e2a47"></rect><path d="M-64.91 400.28L-64.91 400.28" stroke="#132e65" stroke-width="1.5"></path><path d="M-64.91 400.28L44.96 408.91" stroke="#132e65" stroke-width="1.5"></path><path d="M-64.91 400.28L-83.96 527.28" stroke="#132e65" stroke-width="1.5"></path><path d="M-64.91 400.28L53.9 522.83" stroke="#132e65" stroke-width="1.5"></path><path d="M-64.91 400.28L-59.2 646.55" stroke="#132e65" stroke-width="1.5"></path><path d="M-64.91 400.28L225.32 399.2" stroke="#132e65" stroke-width="1.5"></path><path d="M-83.96 527.28L-83.96 527.28" stroke="#132e65" stroke-width="1.5"></path><path d="M-83.96 527.28L-59.2 646.55" stroke="#132e65" stroke-width="1.5"></path><path d="M-59.2 646.55L-59.2 646.55" stroke="#132e65" stroke-width="1.5"></path><path d="M-59.2 646.55L59.88 668.54" stroke="#132e65" stroke-width="1.5"></path><path d="M-59.2 646.55L53.9 522.83" stroke="#132e65" stroke-width="1.5"></path><path d="M-59.2 646.55L44.96 408.91" stroke="#132e65" stroke-width="1.5"></path><path d="M44.96 408.91L44.96 408.91" stroke="#132e65" stroke-width="1.5"></path><path d="M44.96 408.91L53.9 522.83" stroke="#132e65" stroke-width="1.5"></path><path d="M44.96 408.91L-83.96 527.28" stroke="#132e65" stroke-width="1.5"></path><path d="M44.96 408.91L225.32 399.2" stroke="#132e65" stroke-width="1.5"></path><path d="M44.96 408.91L256.76 503.25" stroke="#132e65" stroke-width="1.5"></path><path d="M53.9 522.83L53.9 522.83" stroke="#132e65" stroke-width="1.5"></path><path d="M53.9 522.83L-83.96 527.28" stroke="#132e65" stroke-width="1.5"></path><path d="M53.9 522.83L59.88 668.54" stroke="#132e65" stroke-width="1.5"></path><path d="M59.88 668.54L59.88 668.54" stroke="#132e65" stroke-width="1.5"></path><path d="M59.88 668.54L261.02 676.61" stroke="#132e65" stroke-width="1.5"></path><path d="M59.88 668.54L-83.96 527.28" stroke="#132e65" stroke-width="1.5"></path><path d="M225.32 399.2L225.32 399.2" stroke="#132e65" stroke-width="1.5"></path><path d="M225.32 399.2L256.76 503.25" stroke="#132e65" stroke-width="1.5"></path><path d="M225.32 399.2L343.93 398.6" stroke="#132e65" stroke-width="1.5"></path><path d="M225.32 399.2L342.18 517.56" stroke="#132e65" stroke-width="1.5"></path><path d="M225.32 399.2L53.9 522.83" stroke="#132e65" stroke-width="1.5"></path><path d="M256.76 503.25L256.76 503.25" stroke="#132e65" stroke-width="1.5"></path><path d="M256.76 503.25L342.18 517.56" stroke="#132e65" stroke-width="1.5"></path><path d="M256.76 503.25L343.93 398.6" stroke="#132e65" stroke-width="1.5"></path><path d="M256.76 503.25L261.02 676.61" stroke="#132e65" stroke-width="1.5"></path><path d="M261.02 676.61L261.02 676.61" stroke="#132e65" stroke-width="1.5"></path><path d="M261.02 676.61L392.04 702.35" stroke="#132e65" stroke-width="1.5"></path><path d="M343.93 398.6L343.93 398.6" stroke="#132e65" stroke-width="1.5"></path><path d="M343.93 398.6L342.18 517.56" stroke="#132e65" stroke-width="1.5"></path><path d="M343.93 398.6L488.72 366.84" stroke="#132e65" stroke-width="1.5"></path><path d="M343.93 398.6L514.71 502.3" stroke="#132e65" stroke-width="1.5"></path><path d="M343.93 398.6L261.02 676.61" stroke="#132e65" stroke-width="1.5"></path><path d="M342.18 517.56L342.18 517.56" stroke="#132e65" stroke-width="1.5"></path><path d="M392.04 702.35L392.04 702.35" stroke="#132e65" stroke-width="1.5"></path><path d="M392.04 702.35L549.42 678.39" stroke="#132e65" stroke-width="1.5"></path><path d="M392.04 702.35L342.18 517.56" stroke="#132e65" stroke-width="1.5"></path><path d="M392.04 702.35L514.71 502.3" stroke="#132e65" stroke-width="1.5"></path><path d="M488.72 366.84L488.72 366.84" stroke="#132e65" stroke-width="1.5"></path><path d="M488.72 366.84L514.71 502.3" stroke="#132e65" stroke-width="1.5"></path><path d="M488.72 366.84L660 255.07" stroke="#132e65" stroke-width="1.5"></path><path d="M488.72 366.84L342.18 517.56" stroke="#132e65" stroke-width="1.5"></path><path d="M488.72 366.84L702.07 350.43" stroke="#132e65" stroke-width="1.5"></path><path d="M514.71 502.3L514.71 502.3" stroke="#132e65" stroke-width="1.5"></path><path d="M514.71 502.3L342.18 517.56" stroke="#132e65" stroke-width="1.5"></path><path d="M514.71 502.3L691.66 498.12" stroke="#132e65" stroke-width="1.5"></path><path d="M514.71 502.3L549.42 678.39" stroke="#132e65" stroke-width="1.5"></path><path d="M549.42 678.39L549.42 678.39" stroke="#132e65" stroke-width="1.5"></path><path d="M549.42 678.39L671.56 669.95" stroke="#132e65" stroke-width="1.5"></path><path d="M660 255.07L660 255.07" stroke="#132e65" stroke-width="1.5"></path><path d="M660 255.07L702.07 350.43" stroke="#132e65" stroke-width="1.5"></path><path d="M660 255.07L793.85 398.92" stroke="#132e65" stroke-width="1.5"></path><path d="M660 255.07L859.66 197.59" stroke="#132e65" stroke-width="1.5"></path><path d="M660 255.07L691.66 498.12" stroke="#132e65" stroke-width="1.5"></path><path d="M702.07 350.43L702.07 350.43" stroke="#132e65" stroke-width="1.5"></path><path d="M702.07 350.43L793.85 398.92" stroke="#132e65" stroke-width="1.5"></path><path d="M702.07 350.43L691.66 498.12" stroke="#132e65" stroke-width="1.5"></path><path d="M691.66 498.12L691.66 498.12" stroke="#132e65" stroke-width="1.5"></path><path d="M691.66 498.12L793.85 398.92" stroke="#132e65" stroke-width="1.5"></path><path d="M691.66 498.12L671.56 669.95" stroke="#132e65" stroke-width="1.5"></path><path d="M691.66 498.12L788.18 706.43" stroke="#132e65" stroke-width="1.5"></path><path d="M671.56 669.95L671.56 669.95" stroke="#132e65" stroke-width="1.5"></path><path d="M671.56 669.95L788.18 706.43" stroke="#132e65" stroke-width="1.5"></path><path d="M671.56 669.95L514.71 502.3" stroke="#132e65" stroke-width="1.5"></path><path d="M859.66 197.59L859.66 197.59" stroke="#132e65" stroke-width="1.5"></path><path d="M859.66 197.59L971.71 204.97" stroke="#132e65" stroke-width="1.5"></path><path d="M859.66 197.59L974.59 93.82" stroke="#132e65" stroke-width="1.5"></path><path d="M859.66 197.59L793.85 398.92" stroke="#132e65" stroke-width="1.5"></path><path d="M793.85 398.92L793.85 398.92" stroke="#132e65" stroke-width="1.5"></path><path d="M793.85 398.92L971.71 204.97" stroke="#132e65" stroke-width="1.5"></path><path d="M788.18 706.43L788.18 706.43" stroke="#132e65" stroke-width="1.5"></path><path d="M788.18 706.43L939.57 701.59" stroke="#132e65" stroke-width="1.5"></path><path d="M788.18 706.43L549.42 678.39" stroke="#132e65" stroke-width="1.5"></path><path d="M788.18 706.43L793.85 398.92" stroke="#132e65" stroke-width="1.5"></path><path d="M991.3 -38.91L991.3 -38.91" stroke="#132e65" stroke-width="1.5"></path><path d="M991.3 -38.91L1097.07 -110.38" stroke="#132e65" stroke-width="1.5"></path><path d="M991.3 -38.91L974.59 93.82" stroke="#132e65" stroke-width="1.5"></path><path d="M991.3 -38.91L1090.05 80.16" stroke="#132e65" stroke-width="1.5"></path><path d="M991.3 -38.91L971.71 204.97" stroke="#132e65" stroke-width="1.5"></path><path d="M991.3 -38.91L1246.61 -53.46" stroke="#132e65" stroke-width="1.5"></path><path d="M991.3 -38.91L859.66 197.59" stroke="#132e65" stroke-width="1.5"></path><path d="M974.59 93.82L974.59 93.82" stroke="#132e65" stroke-width="1.5"></path><path d="M974.59 93.82L971.71 204.97" stroke="#132e65" stroke-width="1.5"></path><path d="M974.59 93.82L1090.05 80.16" stroke="#132e65" stroke-width="1.5"></path><path d="M974.59 93.82L1123.98 234.12" stroke="#132e65" stroke-width="1.5"></path><path d="M974.59 93.82L1097.07 -110.38" stroke="#132e65" stroke-width="1.5"></path><path d="M971.71 204.97L971.71 204.97" stroke="#132e65" stroke-width="1.5"></path><path d="M971.71 204.97L1123.98 234.12" stroke="#132e65" stroke-width="1.5"></path><path d="M971.71 204.97L1090.05 80.16" stroke="#132e65" stroke-width="1.5"></path><path d="M971.71 204.97L1115.13 398.94" stroke="#132e65" stroke-width="1.5"></path><path d="M939.57 701.59L939.57 701.59" stroke="#132e65" stroke-width="1.5"></path><path d="M939.57 701.59L1121 690.12" stroke="#132e65" stroke-width="1.5"></path><path d="M939.57 701.59L1106.44 537.18" stroke="#132e65" stroke-width="1.5"></path><path d="M939.57 701.59L671.56 669.95" stroke="#132e65" stroke-width="1.5"></path><path d="M939.57 701.59L691.66 498.12" stroke="#132e65" stroke-width="1.5"></path><path d="M1097.07 -110.38L1097.07 -110.38" stroke="#132e65" stroke-width="1.5"></path><path d="M1097.07 -110.38L1246.61 -53.46" stroke="#132e65" stroke-width="1.5"></path><path d="M1097.07 -110.38L1090.05 80.16" stroke="#132e65" stroke-width="1.5"></path><path d="M1090.05 80.16L1090.05 80.16" stroke="#132e65" stroke-width="1.5"></path><path d="M1090.05 80.16L1123.98 234.12" stroke="#132e65" stroke-width="1.5"></path><path d="M1090.05 80.16L1269.15 66.2" stroke="#132e65" stroke-width="1.5"></path><path d="M1123.98 234.12L1123.98 234.12" stroke="#132e65" stroke-width="1.5"></path><path d="M1123.98 234.12L1115.13 398.94" stroke="#132e65" stroke-width="1.5"></path><path d="M1123.98 234.12L1303.75 237.67" stroke="#132e65" stroke-width="1.5"></path><path d="M1115.13 398.94L1115.13 398.94" stroke="#132e65" stroke-width="1.5"></path><path d="M1115.13 398.94L1106.44 537.18" stroke="#132e65" stroke-width="1.5"></path><path d="M1115.13 398.94L1312.14 401.3" stroke="#132e65" stroke-width="1.5"></path><path d="M1115.13 398.94L1296.82 509.77" stroke="#132e65" stroke-width="1.5"></path><path d="M1115.13 398.94L1303.75 237.67" stroke="#132e65" stroke-width="1.5"></path><path d="M1106.44 537.18L1106.44 537.18" stroke="#132e65" stroke-width="1.5"></path><path d="M1106.44 537.18L1121 690.12" stroke="#132e65" stroke-width="1.5"></path><path d="M1106.44 537.18L1296.82 509.77" stroke="#132e65" stroke-width="1.5"></path><path d="M1106.44 537.18L1261.23 683.91" stroke="#132e65" stroke-width="1.5"></path><path d="M1121 690.12L1121 690.12" stroke="#132e65" stroke-width="1.5"></path><path d="M1121 690.12L1261.23 683.91" stroke="#132e65" stroke-width="1.5"></path><path d="M1121 690.12L1296.82 509.77" stroke="#132e65" stroke-width="1.5"></path><path d="M1121 690.12L1394.76 691.28" stroke="#132e65" stroke-width="1.5"></path><path d="M1246.61 -53.46L1246.61 -53.46" stroke="#132e65" stroke-width="1.5"></path><path d="M1246.61 -53.46L1269.15 66.2" stroke="#132e65" stroke-width="1.5"></path><path d="M1246.61 -53.46L1389.01 -88.65" stroke="#132e65" stroke-width="1.5"></path><path d="M1269.15 66.2L1269.15 66.2" stroke="#132e65" stroke-width="1.5"></path><path d="M1269.15 66.2L1303.75 237.67" stroke="#132e65" stroke-width="1.5"></path><path d="M1269.15 66.2L1450.71 103.67" stroke="#132e65" stroke-width="1.5"></path><path d="M1269.15 66.2L1389.01 -88.65" stroke="#132e65" stroke-width="1.5"></path><path d="M1269.15 66.2L1123.98 234.12" stroke="#132e65" stroke-width="1.5"></path><path d="M1303.75 237.67L1303.75 237.67" stroke="#132e65" stroke-width="1.5"></path><path d="M1303.75 237.67L1419.93 232.63" stroke="#132e65" stroke-width="1.5"></path><path d="M1303.75 237.67L1390.19 364.59" stroke="#132e65" stroke-width="1.5"></path><path d="M1303.75 237.67L1312.14 401.3" stroke="#132e65" stroke-width="1.5"></path><path d="M1312.14 401.3L1312.14 401.3" stroke="#132e65" stroke-width="1.5"></path><path d="M1312.14 401.3L1390.19 364.59" stroke="#132e65" stroke-width="1.5"></path><path d="M1312.14 401.3L1296.82 509.77" stroke="#132e65" stroke-width="1.5"></path><path d="M1312.14 401.3L1419.93 232.63" stroke="#132e65" stroke-width="1.5"></path><path d="M1312.14 401.3L1461.43 535.46" stroke="#132e65" stroke-width="1.5"></path><path d="M1296.82 509.77L1296.82 509.77" stroke="#132e65" stroke-width="1.5"></path><path d="M1296.82 509.77L1461.43 535.46" stroke="#132e65" stroke-width="1.5"></path><path d="M1261.23 683.91L1261.23 683.91" stroke="#132e65" stroke-width="1.5"></path><path d="M1261.23 683.91L1394.76 691.28" stroke="#132e65" stroke-width="1.5"></path><path d="M1261.23 683.91L1296.82 509.77" stroke="#132e65" stroke-width="1.5"></path><path d="M1261.23 683.91L1461.43 535.46" stroke="#132e65" stroke-width="1.5"></path><path d="M1261.23 683.91L1312.14 401.3" stroke="#132e65" stroke-width="1.5"></path><path d="M1389.01 -88.65L1389.01 -88.65" stroke="#132e65" stroke-width="1.5"></path><path d="M1389.01 -88.65L1557.78 -64.95" stroke="#132e65" stroke-width="1.5"></path><path d="M1389.01 -88.65L1450.71 103.67" stroke="#132e65" stroke-width="1.5"></path><path d="M1389.01 -88.65L1571.66 54.7" stroke="#132e65" stroke-width="1.5"></path><path d="M1450.71 103.67L1450.71 103.67" stroke="#132e65" stroke-width="1.5"></path><path d="M1450.71 103.67L1543.05 195.75" stroke="#132e65" stroke-width="1.5"></path><path d="M1450.71 103.67L1571.66 54.7" stroke="#132e65" stroke-width="1.5"></path><path d="M1419.93 232.63L1419.93 232.63" stroke="#132e65" stroke-width="1.5"></path><path d="M1419.93 232.63L1543.05 195.75" stroke="#132e65" stroke-width="1.5"></path><path d="M1419.93 232.63L1450.71 103.67" stroke="#132e65" stroke-width="1.5"></path><path d="M1419.93 232.63L1390.19 364.59" stroke="#132e65" stroke-width="1.5"></path><path d="M1390.19 364.59L1390.19 364.59" stroke="#132e65" stroke-width="1.5"></path><path d="M1461.43 535.46L1461.43 535.46" stroke="#132e65" stroke-width="1.5"></path><path d="M1461.43 535.46L1556.87 552.47" stroke="#132e65" stroke-width="1.5"></path><path d="M1461.43 535.46L1551.97 658.07" stroke="#132e65" stroke-width="1.5"></path><path d="M1461.43 535.46L1394.76 691.28" stroke="#132e65" stroke-width="1.5"></path><path d="M1394.76 691.28L1394.76 691.28" stroke="#132e65" stroke-width="1.5"></path><path d="M1394.76 691.28L1551.97 658.07" stroke="#132e65" stroke-width="1.5"></path><path d="M1394.76 691.28L1296.82 509.77" stroke="#132e65" stroke-width="1.5"></path><path d="M1394.76 691.28L1556.87 552.47" stroke="#132e65" stroke-width="1.5"></path><path d="M1557.78 -64.95L1557.78 -64.95" stroke="#132e65" stroke-width="1.5"></path><path d="M1557.78 -64.95L1571.66 54.7" stroke="#132e65" stroke-width="1.5"></path><path d="M1557.78 -64.95L1450.71 103.67" stroke="#132e65" stroke-width="1.5"></path><path d="M1571.66 54.7L1571.66 54.7" stroke="#132e65" stroke-width="1.5"></path><path d="M1571.66 54.7L1543.05 195.75" stroke="#132e65" stroke-width="1.5"></path><path d="M1543.05 195.75L1543.05 195.75" stroke="#132e65" stroke-width="1.5"></path><path d="M1558.27 383.88L1558.27 383.88" stroke="#132e65" stroke-width="1.5"></path><path d="M1558.27 383.88L1556.87 552.47" stroke="#132e65" stroke-width="1.5"></path><path d="M1556.87 552.47L1556.87 552.47" stroke="#132e65" stroke-width="1.5"></path><path d="M1551.97 658.07L1551.97 658.07" stroke="#132e65" stroke-width="1.5"></path><path d="M1551.97 658.07L1556.87 552.47" stroke="#132e65" stroke-width="1.5"></path><circle r="5" cx="-64.91" cy="400.28" fill="#132e65"></circle><circle r="5" cx="-83.96" cy="527.28" fill="#132e65"></circle><circle r="5" cx="-59.2" cy="646.55" fill="#132e65"></circle><circle r="5" cx="44.96" cy="408.91" fill="#132e65"></circle><circle r="5" cx="53.9" cy="522.83" fill="#132e65"></circle><circle r="5" cx="59.88" cy="668.54" fill="#132e65"></circle><circle r="5" cx="225.32" cy="399.2" fill="#132e65"></circle><circle r="5" cx="256.76" cy="503.25" fill="#132e65"></circle><circle r="5" cx="261.02" cy="676.61" fill="#132e65"></circle><circle r="5" cx="343.93" cy="398.6" fill="#132e65"></circle><circle r="5" cx="342.18" cy="517.56" fill="#132e65"></circle><circle r="5" cx="392.04" cy="702.35" fill="#132e65"></circle><circle r="5" cx="488.72" cy="366.84" fill="#132e65"></circle><circle r="5" cx="514.71" cy="502.3" fill="#132e65"></circle><circle r="5" cx="549.42" cy="678.39" fill="#132e65"></circle><circle r="5" cx="660" cy="255.07" fill="#132e65"></circle><circle r="5" cx="702.07" cy="350.43" fill="#132e65"></circle><circle r="5" cx="691.66" cy="498.12" fill="#132e65"></circle><circle r="5" cx="671.56" cy="669.95" fill="#132e65"></circle><circle r="5" cx="859.66" cy="197.59" fill="#132e65"></circle><circle r="5" cx="793.85" cy="398.92" fill="#132e65"></circle><circle r="5" cx="788.18" cy="706.43" fill="#132e65"></circle><circle r="5" cx="991.3" cy="-38.91" fill="#132e65"></circle><circle r="5" cx="974.59" cy="93.82" fill="#132e65"></circle><circle r="5" cx="971.71" cy="204.97" fill="#132e65"></circle><circle r="5" cx="939.57" cy="701.59" fill="#132e65"></circle><circle r="5" cx="1097.07" cy="-110.38" fill="#132e65"></circle><circle r="5" cx="1090.05" cy="80.16" fill="#132e65"></circle><circle r="5" cx="1123.98" cy="234.12" fill="#132e65"></circle><circle r="5" cx="1115.13" cy="398.94" fill="#132e65"></circle><circle r="5" cx="1106.44" cy="537.18" fill="#132e65"></circle><circle r="5" cx="1121" cy="690.12" fill="#132e65"></circle><circle r="5" cx="1246.61" cy="-53.46" fill="#132e65"></circle><circle r="5" cx="1269.15" cy="66.2" fill="#132e65"></circle><circle r="5" cx="1303.75" cy="237.67" fill="#132e65"></circle><circle r="5" cx="1312.14" cy="401.3" fill="#132e65"></circle><circle r="5" cx="1296.82" cy="509.77" fill="#132e65"></circle><circle r="5" cx="1261.23" cy="683.91" fill="#132e65"></circle><circle r="5" cx="1389.01" cy="-88.65" fill="#132e65"></circle><circle r="5" cx="1450.71" cy="103.67" fill="#132e65"></circle><circle r="5" cx="1419.93" cy="232.63" fill="#132e65"></circle><circle r="5" cx="1390.19" cy="364.59" fill="#132e65"></circle><circle r="5" cx="1461.43" cy="535.46" fill="#132e65"></circle><circle r="5" cx="1394.76" cy="691.28" fill="#132e65"></circle><circle r="5" cx="1557.78" cy="-64.95" fill="#132e65"></circle><circle r="5" cx="1571.66" cy="54.7" fill="#132e65"></circle><circle r="5" cx="1543.05" cy="195.75" fill="#132e65"></circle><circle r="5" cx="1558.27" cy="383.88" fill="#132e65"></circle><circle r="5" cx="1556.87" cy="552.47" fill="#132e65"></circle><circle r="5" cx="1551.97" cy="658.07" fill="#132e65"></circle><path d="M-92.31 524.49L-92.31 524.49" stroke="hsl(228.5, 77.2%, 51.5%)" stroke-width="1.5"></path><path d="M-92.31 524.49L-96.81 702.65" stroke="hsl(228.5, 77.2%, 51.5%)" stroke-width="1.5"></path><path d="M-92.31 524.49L106.77 514.35" stroke="hsl(228.5, 77.2%, 51.5%)" stroke-width="1.5"></path><path d="M-92.31 524.49L90.58 706" stroke="hsl(228.5, 77.2%, 51.5%)" stroke-width="1.5"></path><path d="M-92.31 524.49L192.27 701.31" stroke="hsl(228.5, 77.2%, 51.5%)" stroke-width="1.5"></path><path d="M-92.31 524.49L369.71 560.29" stroke="hsl(228.5, 77.2%, 51.5%)" stroke-width="1.5"></path><path d="M841.06 677L841.06 677" stroke="hsl(228.5, 77.2%, 51.5%)" stroke-width="1.5"></path><path d="M841.06 677L958.69 663.62" stroke="hsl(228.5, 77.2%, 51.5%)" stroke-width="1.5"></path><path d="M841.06 677L833.52 528.71" stroke="hsl(228.5, 77.2%, 51.5%)" stroke-width="1.5"></path><path d="M962 246.97L962 246.97" stroke="hsl(228.5, 77.2%, 51.5%)" stroke-width="1.5"></path><path d="M962 246.97L954.68 350.28" stroke="hsl(228.5, 77.2%, 51.5%)" stroke-width="1.5"></path><path d="M1262.61 189.62L1262.61 189.62" stroke="hsl(228.5, 77.2%, 51.5%)" stroke-width="1.5"></path><path d="M1262.61 189.62L1265.74 84.75" stroke="hsl(228.5, 77.2%, 51.5%)" stroke-width="1.5"></path><path d="M1262.61 189.62L1393.03 203.2" stroke="hsl(228.5, 77.2%, 51.5%)" stroke-width="1.5"></path><path d="M-96.81 702.65L-96.81 702.65" stroke="hsl(228.5, 77.2%, 51.5%)" stroke-width="1.5"></path><path d="M-96.81 702.65L90.58 706" stroke="hsl(228.5, 77.2%, 51.5%)" stroke-width="1.5"></path><path d="M-96.81 702.65L106.77 514.35" stroke="hsl(228.5, 77.2%, 51.5%)" stroke-width="1.5"></path><path d="M-96.81 702.65L192.27 701.31" stroke="hsl(228.5, 77.2%, 51.5%)" stroke-width="1.5"></path><path d="M106.77 514.35L106.77 514.35" stroke="hsl(228.5, 77.2%, 51.5%)" stroke-width="1.5"></path><path d="M106.77 514.35L90.58 706" stroke="hsl(228.5, 77.2%, 51.5%)" stroke-width="1.5"></path><path d="M106.77 514.35L192.27 701.31" stroke="hsl(228.5, 77.2%, 51.5%)" stroke-width="1.5"></path><path d="M106.77 514.35L369.71 560.29" stroke="hsl(228.5, 77.2%, 51.5%)" stroke-width="1.5"></path><path d="M90.58 706L90.58 706" stroke="hsl(228.5, 77.2%, 51.5%)" stroke-width="1.5"></path><path d="M90.58 706L192.27 701.31" stroke="hsl(228.5, 77.2%, 51.5%)" stroke-width="1.5"></path><path d="M192.27 701.31L192.27 701.31" stroke="hsl(228.5, 77.2%, 51.5%)" stroke-width="1.5"></path><path d="M192.27 701.31L388.03 694.96" stroke="hsl(228.5, 77.2%, 51.5%)" stroke-width="1.5"></path><path d="M192.27 701.31L369.71 560.29" stroke="hsl(228.5, 77.2%, 51.5%)" stroke-width="1.5"></path><path d="M369.71 560.29L369.71 560.29" stroke="hsl(228.5, 77.2%, 51.5%)" stroke-width="1.5"></path><path d="M369.71 560.29L388.03 694.96" stroke="hsl(228.5, 77.2%, 51.5%)" stroke-width="1.5"></path><path d="M369.71 560.29L562.01 540.25" stroke="hsl(228.5, 77.2%, 51.5%)" stroke-width="1.5"></path><path d="M388.03 694.96L388.03 694.96" stroke="hsl(228.5, 77.2%, 51.5%)" stroke-width="1.5"></path><path d="M388.03 694.96L557.7 694.68" stroke="hsl(228.5, 77.2%, 51.5%)" stroke-width="1.5"></path><path d="M562.01 540.25L562.01 540.25" stroke="hsl(228.5, 77.2%, 51.5%)" stroke-width="1.5"></path><path d="M562.01 540.25L711.41 540.8" stroke="hsl(228.5, 77.2%, 51.5%)" stroke-width="1.5"></path><path d="M562.01 540.25L557.7 694.68" stroke="hsl(228.5, 77.2%, 51.5%)" stroke-width="1.5"></path><path d="M562.01 540.25L642.44 375.4" stroke="hsl(228.5, 77.2%, 51.5%)" stroke-width="1.5"></path><path d="M562.01 540.25L650.89 707.33" stroke="hsl(228.5, 77.2%, 51.5%)" stroke-width="1.5"></path><path d="M557.7 694.68L557.7 694.68" stroke="hsl(228.5, 77.2%, 51.5%)" stroke-width="1.5"></path><path d="M557.7 694.68L650.89 707.33" stroke="hsl(228.5, 77.2%, 51.5%)" stroke-width="1.5"></path><path d="M557.7 694.68L711.41 540.8" stroke="hsl(228.5, 77.2%, 51.5%)" stroke-width="1.5"></path><path d="M642.44 375.4L642.44 375.4" stroke="hsl(228.5, 77.2%, 51.5%)" stroke-width="1.5"></path><path d="M642.44 375.4L711.41 540.8" stroke="hsl(228.5, 77.2%, 51.5%)" stroke-width="1.5"></path><path d="M642.44 375.4L860.84 391.53" stroke="hsl(228.5, 77.2%, 51.5%)" stroke-width="1.5"></path><path d="M642.44 375.4L833.52 528.71" stroke="hsl(228.5, 77.2%, 51.5%)" stroke-width="1.5"></path><path d="M642.44 375.4L954.68 350.28" stroke="hsl(228.5, 77.2%, 51.5%)" stroke-width="1.5"></path><path d="M642.44 375.4L369.71 560.29" stroke="hsl(228.5, 77.2%, 51.5%)" stroke-width="1.5"></path><path d="M711.41 540.8L711.41 540.8" stroke="hsl(228.5, 77.2%, 51.5%)" stroke-width="1.5"></path><path d="M711.41 540.8L833.52 528.71" stroke="hsl(228.5, 77.2%, 51.5%)" stroke-width="1.5"></path><path d="M711.41 540.8L650.89 707.33" stroke="hsl(228.5, 77.2%, 51.5%)" stroke-width="1.5"></path><path d="M711.41 540.8L841.06 677" stroke="hsl(228.5, 77.2%, 51.5%)" stroke-width="1.5"></path><path d="M650.89 707.33L650.89 707.33" stroke="hsl(228.5, 77.2%, 51.5%)" stroke-width="1.5"></path><path d="M860.84 391.53L860.84 391.53" stroke="hsl(228.5, 77.2%, 51.5%)" stroke-width="1.5"></path><path d="M860.84 391.53L954.68 350.28" stroke="hsl(228.5, 77.2%, 51.5%)" stroke-width="1.5"></path><path d="M860.84 391.53L833.52 528.71" stroke="hsl(228.5, 77.2%, 51.5%)" stroke-width="1.5"></path><path d="M860.84 391.53L962 246.97" stroke="hsl(228.5, 77.2%, 51.5%)" stroke-width="1.5"></path><path d="M833.52 528.71L833.52 528.71" stroke="hsl(228.5, 77.2%, 51.5%)" stroke-width="1.5"></path><path d="M833.52 528.71L953.24 560.1" stroke="hsl(228.5, 77.2%, 51.5%)" stroke-width="1.5"></path><path d="M954.68 350.28L954.68 350.28" stroke="hsl(228.5, 77.2%, 51.5%)" stroke-width="1.5"></path><path d="M954.68 350.28L1093.6 357.54" stroke="hsl(228.5, 77.2%, 51.5%)" stroke-width="1.5"></path><path d="M953.24 560.1L953.24 560.1" stroke="hsl(228.5, 77.2%, 51.5%)" stroke-width="1.5"></path><path d="M953.24 560.1L958.69 663.62" stroke="hsl(228.5, 77.2%, 51.5%)" stroke-width="1.5"></path><path d="M953.24 560.1L1097.6 560.75" stroke="hsl(228.5, 77.2%, 51.5%)" stroke-width="1.5"></path><path d="M953.24 560.1L841.06 677" stroke="hsl(228.5, 77.2%, 51.5%)" stroke-width="1.5"></path><path d="M953.24 560.1L860.84 391.53" stroke="hsl(228.5, 77.2%, 51.5%)" stroke-width="1.5"></path><path d="M953.24 560.1L1128.3 658.36" stroke="hsl(228.5, 77.2%, 51.5%)" stroke-width="1.5"></path><path d="M958.69 663.62L958.69 663.62" stroke="hsl(228.5, 77.2%, 51.5%)" stroke-width="1.5"></path><path d="M1153.82 -102.6L1153.82 -102.6" stroke="hsl(228.5, 77.2%, 51.5%)" stroke-width="1.5"></path><path d="M1153.82 -102.6L1139.66 107.99" stroke="hsl(228.5, 77.2%, 51.5%)" stroke-width="1.5"></path><path d="M1153.82 -102.6L1265.74 84.75" stroke="hsl(228.5, 77.2%, 51.5%)" stroke-width="1.5"></path><path d="M1153.82 -102.6L1262.61 189.62" stroke="hsl(228.5, 77.2%, 51.5%)" stroke-width="1.5"></path><path d="M1153.82 -102.6L1106.41 209.84" stroke="hsl(228.5, 77.2%, 51.5%)" stroke-width="1.5"></path><path d="M1139.66 107.99L1139.66 107.99" stroke="hsl(228.5, 77.2%, 51.5%)" stroke-width="1.5"></path><path d="M1139.66 107.99L1106.41 209.84" stroke="hsl(228.5, 77.2%, 51.5%)" stroke-width="1.5"></path><path d="M1139.66 107.99L1265.74 84.75" stroke="hsl(228.5, 77.2%, 51.5%)" stroke-width="1.5"></path><path d="M1139.66 107.99L1262.61 189.62" stroke="hsl(228.5, 77.2%, 51.5%)" stroke-width="1.5"></path><path d="M1139.66 107.99L962 246.97" stroke="hsl(228.5, 77.2%, 51.5%)" stroke-width="1.5"></path><path d="M1106.41 209.84L1106.41 209.84" stroke="hsl(228.5, 77.2%, 51.5%)" stroke-width="1.5"></path><path d="M1106.41 209.84L1093.6 357.54" stroke="hsl(228.5, 77.2%, 51.5%)" stroke-width="1.5"></path><path d="M1093.6 357.54L1093.6 357.54" stroke="hsl(228.5, 77.2%, 51.5%)" stroke-width="1.5"></path><path d="M1093.6 357.54L962 246.97" stroke="hsl(228.5, 77.2%, 51.5%)" stroke-width="1.5"></path><path d="M1097.6 560.75L1097.6 560.75" stroke="hsl(228.5, 77.2%, 51.5%)" stroke-width="1.5"></path><path d="M1097.6 560.75L1128.3 658.36" stroke="hsl(228.5, 77.2%, 51.5%)" stroke-width="1.5"></path><path d="M1128.3 658.36L1128.3 658.36" stroke="hsl(228.5, 77.2%, 51.5%)" stroke-width="1.5"></path><path d="M1128.3 658.36L1280.38 651.14" stroke="hsl(228.5, 77.2%, 51.5%)" stroke-width="1.5"></path><path d="M1128.3 658.36L958.69 663.62" stroke="hsl(228.5, 77.2%, 51.5%)" stroke-width="1.5"></path><path d="M1128.3 658.36L1295.55 537.55" stroke="hsl(228.5, 77.2%, 51.5%)" stroke-width="1.5"></path><path d="M1265.74 84.75L1265.74 84.75" stroke="hsl(228.5, 77.2%, 51.5%)" stroke-width="1.5"></path><path d="M1266.55 392.77L1266.55 392.77" stroke="hsl(228.5, 77.2%, 51.5%)" stroke-width="1.5"></path><path d="M1266.55 392.77L1295.55 537.55" stroke="hsl(228.5, 77.2%, 51.5%)" stroke-width="1.5"></path><path d="M1295.55 537.55L1295.55 537.55" stroke="hsl(228.5, 77.2%, 51.5%)" stroke-width="1.5"></path><path d="M1295.55 537.55L1280.38 651.14" stroke="hsl(228.5, 77.2%, 51.5%)" stroke-width="1.5"></path><path d="M1295.55 537.55L1455.44 507.69" stroke="hsl(228.5, 77.2%, 51.5%)" stroke-width="1.5"></path><path d="M1280.38 651.14L1280.38 651.14" stroke="hsl(228.5, 77.2%, 51.5%)" stroke-width="1.5"></path><path d="M1461.11 53.94L1461.11 53.94" stroke="hsl(228.5, 77.2%, 51.5%)" stroke-width="1.5"></path><path d="M1461.11 53.94L1598.32 41.8" stroke="hsl(228.5, 77.2%, 51.5%)" stroke-width="1.5"></path><path d="M1461.11 53.94L1565.89 -56.02" stroke="hsl(228.5, 77.2%, 51.5%)" stroke-width="1.5"></path><path d="M1393.03 203.2L1393.03 203.2" stroke="hsl(228.5, 77.2%, 51.5%)" stroke-width="1.5"></path><path d="M1393.03 203.2L1461.11 53.94" stroke="hsl(228.5, 77.2%, 51.5%)" stroke-width="1.5"></path><path d="M1393.03 203.2L1265.74 84.75" stroke="hsl(228.5, 77.2%, 51.5%)" stroke-width="1.5"></path><path d="M1415.01 409.49L1415.01 409.49" stroke="hsl(228.5, 77.2%, 51.5%)" stroke-width="1.5"></path><path d="M1415.01 409.49L1455.44 507.69" stroke="hsl(228.5, 77.2%, 51.5%)" stroke-width="1.5"></path><path d="M1415.01 409.49L1266.55 392.77" stroke="hsl(228.5, 77.2%, 51.5%)" stroke-width="1.5"></path><path d="M1455.44 507.69L1455.44 507.69" stroke="hsl(228.5, 77.2%, 51.5%)" stroke-width="1.5"></path><path d="M1455.44 507.69L1610.85 515.79" stroke="hsl(228.5, 77.2%, 51.5%)" stroke-width="1.5"></path><path d="M1455.44 507.69L1450.46 695.02" stroke="hsl(228.5, 77.2%, 51.5%)" stroke-width="1.5"></path><path d="M1450.46 695.02L1450.46 695.02" stroke="hsl(228.5, 77.2%, 51.5%)" stroke-width="1.5"></path><path d="M1450.46 695.02L1578.74 670.97" stroke="hsl(228.5, 77.2%, 51.5%)" stroke-width="1.5"></path><path d="M1450.46 695.02L1280.38 651.14" stroke="hsl(228.5, 77.2%, 51.5%)" stroke-width="1.5"></path><path d="M1565.89 -56.02L1565.89 -56.02" stroke="hsl(228.5, 77.2%, 51.5%)" stroke-width="1.5"></path><path d="M1565.89 -56.02L1598.32 41.8" stroke="hsl(228.5, 77.2%, 51.5%)" stroke-width="1.5"></path><path d="M1565.89 -56.02L1602.27 253.29" stroke="hsl(228.5, 77.2%, 51.5%)" stroke-width="1.5"></path><path d="M1565.89 -56.02L1393.03 203.2" stroke="hsl(228.5, 77.2%, 51.5%)" stroke-width="1.5"></path><path d="M1565.89 -56.02L1265.74 84.75" stroke="hsl(228.5, 77.2%, 51.5%)" stroke-width="1.5"></path><path d="M1598.32 41.8L1598.32 41.8" stroke="hsl(228.5, 77.2%, 51.5%)" stroke-width="1.5"></path><path d="M1598.32 41.8L1602.27 253.29" stroke="hsl(228.5, 77.2%, 51.5%)" stroke-width="1.5"></path><path d="M1598.32 41.8L1393.03 203.2" stroke="hsl(228.5, 77.2%, 51.5%)" stroke-width="1.5"></path><path d="M1598.32 41.8L1599.21 345.08" stroke="hsl(228.5, 77.2%, 51.5%)" stroke-width="1.5"></path><path d="M1598.32 41.8L1265.74 84.75" stroke="hsl(228.5, 77.2%, 51.5%)" stroke-width="1.5"></path><path d="M1602.27 253.29L1602.27 253.29" stroke="hsl(228.5, 77.2%, 51.5%)" stroke-width="1.5"></path><path d="M1602.27 253.29L1599.21 345.08" stroke="hsl(228.5, 77.2%, 51.5%)" stroke-width="1.5"></path><path d="M1602.27 253.29L1393.03 203.2" stroke="hsl(228.5, 77.2%, 51.5%)" stroke-width="1.5"></path><path d="M1602.27 253.29L1415.01 409.49" stroke="hsl(228.5, 77.2%, 51.5%)" stroke-width="1.5"></path><path d="M1602.27 253.29L1461.11 53.94" stroke="hsl(228.5, 77.2%, 51.5%)" stroke-width="1.5"></path><path d="M1602.27 253.29L1610.85 515.79" stroke="hsl(228.5, 77.2%, 51.5%)" stroke-width="1.5"></path><path d="M1599.21 345.08L1599.21 345.08" stroke="hsl(228.5, 77.2%, 51.5%)" stroke-width="1.5"></path><path d="M1599.21 345.08L1610.85 515.79" stroke="hsl(228.5, 77.2%, 51.5%)" stroke-width="1.5"></path><path d="M1599.21 345.08L1415.01 409.49" stroke="hsl(228.5, 77.2%, 51.5%)" stroke-width="1.5"></path><path d="M1599.21 345.08L1455.44 507.69" stroke="hsl(228.5, 77.2%, 51.5%)" stroke-width="1.5"></path><path d="M1599.21 345.08L1393.03 203.2" stroke="hsl(228.5, 77.2%, 51.5%)" stroke-width="1.5"></path><path d="M1610.85 515.79L1610.85 515.79" stroke="hsl(228.5, 77.2%, 51.5%)" stroke-width="1.5"></path><path d="M1610.85 515.79L1578.74 670.97" stroke="hsl(228.5, 77.2%, 51.5%)" stroke-width="1.5"></path><path d="M1578.74 670.97L1578.74 670.97" stroke="hsl(228.5, 77.2%, 51.5%)" stroke-width="1.5"></path><path d="M1578.74 670.97L1455.44 507.69" stroke="hsl(228.5, 77.2%, 51.5%)" stroke-width="1.5"></path><circle r="25" cx="-92.31" cy="524.49" fill="url(#SvgjsRadialGradient1001)"></circle><circle r="25" cx="841.06" cy="677" fill="url(#SvgjsRadialGradient1001)"></circle><circle r="25" cx="962" cy="246.97" fill="url(#SvgjsRadialGradient1001)"></circle><circle r="25" cx="1262.61" cy="189.62" fill="url(#SvgjsRadialGradient1001)"></circle><circle r="5" cx="-96.81" cy="702.65" fill="#8b9ad9"></circle><circle r="5" cx="106.77" cy="514.35" fill="#8b9ad9"></circle><circle r="5" cx="90.58" cy="706" fill="#8b9ad9"></circle><circle r="5" cx="192.27" cy="701.31" fill="#8b9ad9"></circle><circle r="5" cx="369.71" cy="560.29" fill="#8b9ad9"></circle><circle r="5" cx="388.03" cy="694.96" fill="#8b9ad9"></circle><circle r="5" cx="562.01" cy="540.25" fill="#8b9ad9"></circle><circle r="5" cx="557.7" cy="694.68" fill="#8b9ad9"></circle><circle r="5" cx="642.44" cy="375.4" fill="#8b9ad9"></circle><circle r="5" cx="711.41" cy="540.8" fill="#8b9ad9"></circle><circle r="5" cx="650.89" cy="707.33" fill="#8b9ad9"></circle><circle r="5" cx="860.84" cy="391.53" fill="#8b9ad9"></circle><circle r="5" cx="833.52" cy="528.71" fill="#8b9ad9"></circle><circle r="5" cx="954.68" cy="350.28" fill="#8b9ad9"></circle><circle r="5" cx="953.24" cy="560.1" fill="#8b9ad9"></circle><circle r="5" cx="958.69" cy="663.62" fill="#8b9ad9"></circle><circle r="5" cx="1153.82" cy="-102.6" fill="#8b9ad9"></circle><circle r="5" cx="1139.66" cy="107.99" fill="#8b9ad9"></circle><circle r="5" cx="1106.41" cy="209.84" fill="#8b9ad9"></circle><circle r="5" cx="1093.6" cy="357.54" fill="#8b9ad9"></circle><circle r="5" cx="1097.6" cy="560.75" fill="#8b9ad9"></circle><circle r="5" cx="1128.3" cy="658.36" fill="#8b9ad9"></circle><circle r="5" cx="1265.74" cy="84.75" fill="#8b9ad9"></circle><circle r="5" cx="1266.55" cy="392.77" fill="#8b9ad9"></circle><circle r="5" cx="1295.55" cy="537.55" fill="#8b9ad9"></circle><circle r="5" cx="1280.38" cy="651.14" fill="#8b9ad9"></circle><circle r="5" cx="1461.11" cy="53.94" fill="#8b9ad9"></circle><circle r="5" cx="1393.03" cy="203.2" fill="#8b9ad9"></circle><circle r="5" cx="1415.01" cy="409.49" fill="#8b9ad9"></circle><circle r="5" cx="1455.44" cy="507.69" fill="#8b9ad9"></circle><circle r="5" cx="1450.46" cy="695.02" fill="#8b9ad9"></circle><circle r="5" cx="1565.89" cy="-56.02" fill="#8b9ad9"></circle><circle r="5" cx="1598.32" cy="41.8" fill="#8b9ad9"></circle><circle r="5" cx="1602.27" cy="253.29" fill="#8b9ad9"></circle><circle r="5" cx="1599.21" cy="345.08" fill="#8b9ad9"></circle><circle r="5" cx="1610.85" cy="515.79" fill="#8b9ad9"></circle><circle r="5" cx="1578.74" cy="670.97" fill="#8b9ad9"></circle></g><defs><mask id="SvgjsMask1000"><rect width="1440" height="560" fill="#ffffff"></rect></mask><radialGradient id="SvgjsRadialGradient1001"><stop stop-color="#ffffff" offset="0.1"></stop><stop stop-color="#1735b3" offset="0.2"></stop><stop stop-color="rgba(23, 53, 179, 0)" offset="1"></stop></radialGradient></defs></svg>