<svg xmlns="http://www.w3.org/2000/svg" xmlns:xlink="http://www.w3.org/1999/xlink" width="196.482" height="240.082" viewBox="0 0 196.482 240.082"><defs><linearGradient id="a" x1="0.5" x2="0.5" y2="1" gradientUnits="objectBoundingBox"><stop offset="0" stop-color="#0f98cf" stop-opacity="0.949"/><stop offset="0.339" stop-color="#5a7697" stop-opacity="0.902"/><stop offset="0.552" stop-color="#8a6074" stop-opacity="0.678"/><stop offset="0.715" stop-color="#ae5059" stop-opacity="0.49"/><stop offset="1" stop-color="#ee332a" stop-opacity="0.678"/></linearGradient><linearGradient id="b" x1="0.5" x2="0.5" y2="1" gradientUnits="objectBoundingBox"><stop offset="0" stop-color="#f1756f" stop-opacity="0.49"/><stop offset="1" stop-color="#ee332a" stop-opacity="0.651"/></linearGradient></defs><g transform="translate(0 0)"><path d="M1268.9,1424.013s22.173-34.5,47.521-24.558,38.272,49.116,46.245,73.355c12.757,54.856,7.973,105.248,0,122.789-31.255,50.71-38.91-14.352-46.245-24.877-28.7-50.711-61.873-8.93-72.4,2.232-84.2,92.809-46.883-2.871-31.255-35.4S1268.9,1424.013,1268.9,1424.013Z" transform="translate(-1190.923 -1397.656)" fill="url(#a)"/><path d="M1305.9,1665.037c-25.5-7.708,7.284,23.824-18.641,32.232s-22.422,20.32-7.708,21.021,46.774-16.042,54.184-25.156C1336.389,1688.019,1331.407,1672.745,1305.9,1665.037Z" transform="translate(-1216.098 -1484.449)" fill="url(#b)"/><g transform="translate(20.089 18.284)"><path d="M1833.845,1595.089s-5.85-15.938-4.567-29.843c2.78-64.818,57.307-87.28,90.238-86.638s86.816,26.312,85.961,93.7a86.3,86.3,0,0,1-14.19,42.462,53.467,53.467,0,0,0-18.93-.36,25.079,25.079,0,0,0-7.19,1.568c-1.09.716-1.363.545-1.227,3.136.068,2.046-2.454,2.591-2.454,2.591s-5.078.75-7.974,3.511-3.46,4.893-6.894,7.306a13.364,13.364,0,0,1-7.917,2.019s5.924-6.189,7.445-10.542c.917-3.3,8.441-5.3,8.991-19.826a24.828,24.828,0,0,0,2.308-8.906,49.507,49.507,0,0,1-8.639,2.216c-3.19-.221-5.626-2.039-7.753-1.817s-3.81,2.172-6.468,2.083-2.7-2.039-6.335-1.861-8.461,2.526-19.271,1.418c-3.411-.311-9.924-4.654-16.037-13.207-3.1-1.6-2.392,1.507-6.114,1.33s-5.335-14.625-17.071-9.562a8.233,8.233,0,0,0-2.864,8.17,13.27,13.27,0,0,0,3.872,5.951c.729.9,1.192,2.118,2.036,3.086,1.482,1.7,3.014,2.129,4.6,3.759.807.838.081,1.556-.527,2.234-1.4,1.612-7.564,1.588-10.722-2.483s-2.1-5.259-8.342-5.941c-3.071.273-7.567,3.541-11.358,3.823A60.977,60.977,0,0,1,1833.845,1595.089Z" transform="translate(-1829.094 -1478.595)"/><path d="M2017.058,1738.505c1.809.577,2.9,2.548,6.07,2.364s7.586-4.255,4.695-7.588c-1.234,1.313-2.417,3.5-4.436,3.34s-4.836-3.083-7.115-2.868c-1.187.112-3.58.394-3.413,3.318C2013.277,1739.507,2016.192,1738.229,2017.058,1738.505Z" transform="translate(-1920.452 -1605.165)"/><g transform="translate(17.72 18.153)"><path d="M1893.622,1550.057c1.222.191-26.053-4.363-29.163,10.016s52.943,45.865,82.847,47c26.876,1.936,56.745-1.463,59.782-26.592-1.845-17.13-22.609-18.907-22.609-18.907s-1.545,7.2-7.307,9.312c-3.293.607,2.564-5.118,2.766-8.889,1.585-1.246-4.1-27.28-16.319-42.084-.849-.732-4.733-6.362-18.389-5.031-11.783,2.811-7.937,2.614-15.283,3.354-7.2-.1-5.423-2.713-18.586-2.121s-12.67,21.257-14.593,27.57c-2.219,12.527,29.186,15.191,36.679,18.446s1.183,6.017,9.663,14.451c3.173,4.434-14.006,1.694-29.334-4.389C1900.436,1566.9,1888.482,1559.108,1893.622,1550.057Z" transform="translate(-1864.335 -1514.682)" fill="#ee332a"/><path d="M1952.562,1547.049c2.742,2.743,17.561-2.247,20.595,3.123,1.955,4.757-13.769,1.488-17.561,6.479-2.48,2.481-4.551.35-6.972-3.064-4.288-2.626-3.851-6.654-2.975-8.084C1948.157,1542.146,1950.578,1545.619,1952.562,1547.049Z" transform="translate(-1904.475 -1529.294)"/><path d="M2030.239,1531.436c-2.064.875-6.351,1.3-11.175.583-5.722-1.684,10.434-2.245,2.334-6.263a24.366,24.366,0,0,0-6.687-.314c-8.774,1.437,1.144-3.255,8.819-2.694S2037.689,1527.148,2030.239,1531.436Z" transform="translate(-1937.39 -1518.667)"/></g><text transform="translate(7.722 186.798)" font-size="49" font-family="NotoSans-Bold, Noto Sans" font-weight="700"><tspan x="0" y="0">red</tspan><tspan y="0" font-family="NotoSans, Noto Sans" font-weight="400">hat</tspan></text></g><text transform="translate(27.811 234.082)" font-size="22" font-family="NotoSans, Noto Sans"><tspan x="0" y="0">Training Camp</tspan></text></g></svg>